<?xml version="1.0" encoding="UTF-8"?>
<svg xmlns="http://www.w3.org/2000/svg" viewBox="0 0 6692.47 9635" preserveAspectRatio="none">
  <defs>
    <style>
      <!-- Road Shapes -->
      .st0 {
        fill: #010D38AA;
	stroke: #006F77;
	vector-effect: non-scaling-stroke;
	stroke-width: 2px;
      }

      <!-- Downtown Shapes -->
      .st1 {
        fill: #47E15D;
	stroke: #0E5819;
	vector-effect: non-scaling-stroke;
	stroke-width: 2px;
      }

      <!-- Midtown Shapes -->
      .st2 {
        fill: #FCAC6F;
	stroke: #A04703;
	vector-effect: non-scaling-stroke;
	stroke-width: 2px;
      }

      <!-- Spaceport Shapes -->
      .st3 {
        fill: #D45893;
	stroke: #511532;
	vector-effect: non-scaling-stroke;
	stroke-width: 2px;
      }

      <!-- Hidden elements -->
      .st4 {
        display: none;
      }

      <!-- Debug style to find elements -->
      .st5 {
        fill: #ff00ff;
      }
    </style>
  </defs>
  <g id="Navigable_Image" data-name="Navigable Image">
    <path id="Bounding Box" class="st4" d="M0,0L6692.47,0L6692.47,9635L0,9635Z"/>
    <path id="Roads" class="st0" d="M197.22.07l87.09,499.53,6408.12,4.33-.03,188.58-991.65-.34v2056.58s991.68,4.35,991.68,4.35v194.66s-991.51-6.33-991.51-6.33l-.25,1551.68,991.75,3.76v194.43s-991.67-5.59-991.67-5.59v1551.58s991.67,3.12,991.67,3.12l.03,194.93-2118.99-4.97-.16,684.3-1139.8-.47.03,703.22,101.42,1.14c24.01,15.26,57.04,18.92,89.41,17.14,4.7-3.45,6.73-25.78,1.05-31.27-10.01-9.49-19.44-18.99-22.15-26.66-3.6-10.19,10.46-29.11,25.68-34.81l1.29-179.63-55.81-3.29.9-51.34,218.47.9c9,19.21,17.72,29.7,31.44,41.23l-.03,366.58-291.49-.15-17.7-25.16-83.21.68-4.19,1544.85h-195.45s7.69-806.04,7.69-806.04l-50.13-3.77-.54,64.67-219.15-.38-1.33-128.23-67.3,1.48-.6,189.75-60.85-.25.17-310.78,31.99-13.78-.12-343.66,288.52-.89.14-49.61c1.08-3.53,5.05-14.11,8.68-13.86l19.99,1.4.3,127.13,50.25-6.19-.19-808.01-120.18-.57,1.13-60.88,119.3-.19-1.19-160.59-932.48.03-2.87,58.07-292.11.63-844.27-2253.55-89.4-274.04-599.02-1903.04-177.35-1055.26L4.6,53.16,0,0l197.22.07ZM2113.42,2748.31V692.16s-1793.92.17-1793.92.17l376.15,2056.95,1417.78-.97ZM3240.81,691.68h-934.68v2058.59h934.68V691.68ZM4379.85,692.03h-946.33v2056.8h946.33V692.03ZM5507.31,691.56h-933.92v2057.27h933.92V691.56ZM2113.47,4492.31l-.1-1550.89-1367.71.36,488.67,1552.19,879.14-1.66ZM3240.81,2941.47h-934.68v1552.74h934.68v-1552.74ZM4379.85,2941.47h-946.33v1551.61h946.33v-1551.61ZM5507.25,2941.44l-933.92.04.06,1552.86,933.92-.04-.06-1552.86ZM2113.43,6236.72l.02-1551.18-827.05.39,581.57,1551.83,245.45-1.05ZM3240.81,4685.66h-934.68v1552.49h934.68v-1552.49ZM4379.85,4685.66h-946.33v1552.68h946.33v-1552.68ZM5507.25,4685.66h-933.86v1552.68h933.86v-1552.68ZM2113.12,6430.19l-173.01.63,170.63,452.23,2.38-452.87ZM3240.81,6430.41h-934.68v491.87h934.68v-491.87ZM4379.92,6430.41h-946.39v492.25h946.39v-492.25ZM3780.03,7834.58l.22-172.87-24.42-16.74-.85-82.74-55.67.29.56,81.96-25.59,13.01v177.07s105.74.03,105.74.03ZM3130.05,8145.85l-195.89.32.11,68.2,195.89-.32-.11-68.2ZM3240.81,8209.96h-50.3v358.68h50.3v-358.68ZM3130.35,8275.12l-196.16.35.12,68.11,196.16-.35-.12-68.11ZM3028.17,8515.53l2.97,115.49,99.02,1.27-.38-164.88-87.98-.05c-5.48,0-10.92-24.02-5.48-24.8l29.37-4.22.45-67.62-61.06,3.03c-12.96,20.28-18.62,26.29-32.54,37.35l-14.75,24.3-55.56.85.26,67.11,67.03-1.09,4.17-28.63c.69-4.75,13.38.87,16.81,4.3l37.66,37.59Z"/>
    <path class="st4" d="M6692.46,6435.34l-.39,3002.32-3263.42-.03,4.19-1544.85,83.21-.68,17.7,25.16,291.49.15.03-366.58c-13.73-11.53-22.44-22.02-31.44-41.23l-218.47-.9-.9,51.34,55.81,3.29-1.29,179.63c-15.23,5.7-29.28,24.62-25.68,34.81,2.7,7.67,12.14,17.17,22.15,26.66,5.68,5.5,3.65,27.83-1.05,31.27-32.37,1.78-65.4-1.88-89.41-17.14l-101.42-1.14-.03-703.22,1139.8.47.16-684.3,2118.99,4.97Z"/>
    <polygon class="st4" points="197.22 .07 6692.47 .02 6692.44 503.92 284.31 499.59 197.22 .07"/>
    <polygon class="st4" points="6692.41 692.5 6692.43 2753.09 5700.76 2748.74 5700.76 692.16 6692.41 692.5"/>
    <polygon class="st4" points="6692.43 2947.75 6692.43 4496.87 5700.68 4493.11 5700.93 2941.43 6692.43 2947.75"/>
    <polygon class="st4" points="6692.43 4691.31 6692.43 6240.42 5700.76 6237.3 5700.76 4685.72 6692.43 4691.31"/>
    <polygon class="st4" points="2113.42 2748.31 695.65 2749.28 319.5 692.33 2113.42 692.16 2113.42 2748.31"/>
    <rect class="st4" x="3433.53" y="692.03" width="946.33" height="2056.8"/>
    <rect class="st4" x="2306.14" y="691.68" width="934.68" height="2058.59"/>
    <rect class="st4" x="4573.39" y="691.56" width="933.92" height="2057.27"/>
    <polygon class="st4" points="2113.47 4492.31 1234.33 4493.97 745.66 2941.78 2113.37 2941.42 2113.47 4492.31"/>
    <rect class="st4" x="3433.53" y="2941.47" width="946.33" height="1551.61"/>
    <rect class="st4" x="3433.53" y="4685.66" width="946.33" height="1552.68"/>
    <rect class="st4" x="2306.14" y="2941.47" width="934.68" height="1552.74"/>
    <rect class="st4" x="4573.36" y="2941.46" width="933.92" height="1552.86"/>
    <rect class="st4" x="2306.14" y="4685.66" width="934.68" height="1552.49"/>
    <rect class="st4" x="4573.39" y="4685.66" width="933.86" height="1552.68"/>
    <polygon class="st4" points="2113.43 6236.72 1867.97 6237.77 1286.4 4685.94 2113.44 4685.54 2113.43 6236.72"/>
    <rect class="st4" x="3433.53" y="6430.41" width="946.39" height="492.25"/>
    <rect class="st4" x="2306.14" y="6430.41" width="934.68" height="491.87"/>
    <polygon class="st4" points="2113.12 6430.19 2110.73 6883.06 1940.1 6430.83 2113.12 6430.19"/>
    <path class="st4" d="M3028.17,8515.53l-37.66-37.59c-3.43-3.42-16.12-9.04-16.81-4.3l-4.17,28.63-67.03,1.09-.26-67.11,55.56-.85,14.75-24.3c13.91-11.06,19.57-17.07,32.54-37.35l61.06-3.03-.45,67.62-29.37,4.22c-5.43.78,0,24.8,5.48,24.8l87.98.05.38,164.88-99.02-1.27-2.97-115.49Z"/>
    <polygon class="st4" points="3780.03 7834.58 3674.31 7834.55 3674.3 7657.48 3699.89 7644.48 3699.32 7562.52 3754.99 7562.23 3755.83 7644.97 3780.25 7661.71 3780.03 7834.58"/>
    <rect class="st4" x="3190.51" y="8209.96" width="50.3" height="358.68"/>
    <rect class="st4" x="2934.22" y="8146.01" width="195.89" height="68.2" transform="translate(-13.46 5) rotate(-.09)"/>
    <rect class="st4" x="2934.25" y="8275.3" width="196.16" height="68.11" transform="translate(-14.84 5.43) rotate(-.1)"/>
  </g>
  <g id="Layer_5_Image" data-name="Layer 5 Image">
    <path id="17" class="st2" d="M4404.47,7117.66v302.09c-1.76,1.57-6.78,3.49-10.03,3.49l-198.35-.24.08-306.74,202.05-.05,6.25,1.46Z"/>
    <path id="31" class="st3" d="M3215.15,6078l1.56,14.02-.1,142.42-409.56.04-.21-144.48c0-4,1.13-9.29,2.42-12h405.89Z"/>
    <path id="23" class="st2" d="M2649.47,7300.11v-182.53l12.09-2.37,215.67.08,1.64,43.25.7,144.61-220.07.06c-2.95,0-8.21-1.92-10.04-3.09Z"/>
    <path class="st4" d="M3379.01,9635h-83.86l3.58-8.24-.25-89.77c.37-7.24,1.51-13.86,3.61-21.33l63.08-.24c8.26-.03,12.45,5.39,12.44,13.57l-.14,96.14,1.53,9.87Z"/>
    <path id="01" class="st1" d="M3449.47,9635h-70.46l-1.53-9.87.14-96.14c.01-8.18-4.18-13.6-12.44-13.57l-63.08.24c-2.1,7.47-3.24,14.09-3.61,21.33l.25,89.77-3.58,8.24h-66.06c-2.38-6.34-2.67-13.28-1.38-21.39l39.96-.03c4.18.25,8.89-4.08,8.9-8.76l.26-106.12,119.51-.16.38,106.42c.03,7.23,8.44,11.38,14.17,8.44l38.47.25.1,21.33Z"/>
    <rect id="09" class="st1" x="3450.54" y="8018.98" width="403.77" height="590.87"/>
    <path id="25" class="st2" d="M3884.38,6776.72l-.18,137.54-430.59.04.31-245.94h674.77s.28,97.92.28,97.92l-235.39.08c-2.21,1.43-9.19,7.45-9.2,10.36Z"/>
    <rect id="15" class="st2" x="3453.48" y="7116.2" width="475.73" height="203.28"/>
    <rect id="28" class="st3" x="2673.93" y="6702.34" width="409.77" height="215.94"/>
    <rect id="26" class="st2" x="3453.48" y="6433.43" width="348.86" height="224.93"/>
    <rect id="08" class="st1" x="3453.48" y="8615.77" width="401.35" height="168.54"/>
    <rect id="07" class="st1" x="3453.48" y="8794.76" width="282.89" height="185.95"/>
    <ellipse id="18" class="st2" cx="3093.22" cy="7874.5" rx="127.06" ry="127.09"/>
    <path id="29" class="st3" d="M3213.85,6552.82c-.97,72.82-59.63,126.93-130.77,124.76-68.05-2.07-121.16-55.51-122.52-123.78-1.1-54.96,30.84-103.32,82.86-122.32h87.62c51.04,18.83,83.55,65.78,82.81,121.34Z"/>
    <rect id="04" class="st1" x="2886.86" y="9052.69" width="330.76" height="145.96"/>
    <path id="22" class="st2" d="M3108.51,7331.06l-120.66.06-.16-171.5c0-4.24-6.48-9.56-10.11-10.4l-89.67-.03.3-32.95,330.34.02.14,151.64-109.73.56-.46,62.62Z"/>
    <rect id="05" class="st1" x="3066.76" y="8778.77" width="150.86" height="263.93"/>
    <rect id="20" class="st2" x="2987.75" y="7488.09" width="230.92" height="151"/>
    <polygon id="21" class="st2" points="3218.62 7344.19 3218.66 7475.16 2987.78 7474.93 2987.77 7341.29 3128.96 7341.11 3139.12 7344.18 3218.62 7344.19"/>
    <rect id="24" class="st2" x="3898.29" y="6779.33" width="230.81" height="134.95"/>
    <rect id="16" class="st2" x="3943.21" y="7116.2" width="166.96" height="165.98"/>
    <rect id="27" class="st3" x="3097.69" y="6702.31" width="120.99" height="215.97"/>
    <ellipse id="02" class="st1" cx="3540.96" cy="9171.14" rx="84.06" ry="84.08"/>
    <rect id="30" class="st3" x="3455.48" y="6129.51" width="188.95" height="104.96"/>
    <rect id="19" class="st2" x="2987.75" y="7652.83" width="230.92" height="69.22"/>
    <rect id="03" class="st1" x="2977.76" y="9211.61" width="239.86" height="52.02"/>
    <rect id="06" class="st1" x="3453.48" y="8990.71" width="230.92" height="48.98"/>
    <ellipse id="14" class="st2" cx="3503.98" cy="7402.64" rx="58.07" ry="58.08"/>
    <rect id="MB09" class="st1" x="2803.85" y="8279.87" width="55.97" height="151.99"/>
    <rect id="13" class="st2" x="3453.48" y="7554.07" width="89.95" height="88.01"/>
    <rect id="M12" class="st2" x="3722.43" y="7655.1" width="45.83" height="172.41"/>
    <rect id="12" class="st2" x="3453.12" y="7653.08" width="91.29" height="87.98"/>
    <path id="01A" class="st1" d="M3571.6,9494.45c-6.03,5.94-10.71-4.31-13.34-6.73l-22.77-20.94-15.9-14.47-26.06-23.46-24.58-23.66-18.38-15.71-14.76-13.39c-9.73-8.83,3.96-8.7,12.19-24.34,1.88-3.58,10.66-9.04,13.67-6.25l20.16,18.69c7.36,6.83,14.96,13.35,23.02,18.45,12.35,15.68,26.99,27.85,41.78,40.95l20.07,17.78c7.72,6.84,14.18,15.21,23.54,20.48,1.32.74,3.88,3.51,4.5,4.89.78,1.73-1.09,5.98-2.53,7.4l-20.61,20.31Z"/>
    <rect id="MB44" class="st1" x="3028.78" y="8696.79" width="119.93" height="55.98"/>
    <rect id="10" class="st2" x="3453.48" y="7899.41" width="57.02" height="95.88"/>
    <polygon id="MB34" class="st1" points="3084.83 8559.16 3028.79 8559.08 3028.83 8472.13 3084.57 8472.07 3084.83 8559.16"/>
    <polygon id="M01" class="st2" points="3843.88 7532.37 3797.95 7532.81 3798.24 7448.85 3843.72 7448.88 3843.88 7532.37"/>
    <polygon id="M11" class="st2" points="3743.35 7649.72 3697.59 7649.98 3697.58 7567.2 3743.21 7567.32 3743.35 7649.72"/>
    <polygon id="11" class="st2" points="3545.36 7809.07 3490.78 7808.93 3490.49 7749.11 3545.65 7749.13 3545.36 7809.07"/>
    <polygon id="MB35" class="st1" points="3117.58 8624.75 3060.99 8624.75 3060.85 8568.98 3117.67 8569.34 3117.58 8624.75"/>
    <polygon id="MB32" class="st1" points="2828.05 8752.18 2771.94 8752.12 2771.93 8697.08 2827.37 8696.71 2828.05 8752.18"/>
    <polygon id="MB40MB41" class="st1" points="2956.87 8720.51 2901.09 8720.8 2900.92 8664.98 2956.55 8664.82 2956.87 8720.51"/>
    <polygon id="MB13" class="st1" points="3116.65 8335.86 3060.91 8335.72 3060.81 8280.19 3116.68 8280.51 3116.65 8335.86"/>
    <polygon id="MB31" class="st1" points="2828.05 8688.19 2771.94 8688.14 2771.93 8633.1 2827.37 8632.73 2828.05 8688.19"/>
    <polygon id="MB14" class="st1" points="3052.68 8335.86 2996.95 8335.72 2996.85 8280.19 3052.72 8280.51 3052.68 8335.86"/>
    <polygon id="MB43" class="st1" points="3020.83 8752.5 2965.05 8752.8 2964.88 8696.97 3020.52 8696.81 3020.83 8752.5"/>
    <polygon id="MB20MB21" class="st1" points="3052.68 8431.83 2996.95 8431.69 2996.85 8376.17 3052.72 8376.48 3052.68 8431.83"/>
    <polygon id="MB39" class="st1" points="2956.87 8656.53 2901.09 8656.82 2900.92 8600.99 2956.55 8600.84 2956.87 8656.53"/>
    <polygon id="MB05" class="st1" points="2956.87 8078.69 2901.09 8078.99 2900.92 8023.16 2956.55 8023 2956.87 8078.69"/>
    <polygon id="MB29MB30" class="st1" points="2828.05 8624.21 2771.94 8624.15 2771.93 8569.12 2827.37 8568.75 2828.05 8624.21"/>
    <polygon id="MB45" class="st1" points="3213.83 8752.18 3157.72 8752.12 3157.71 8697.08 3213.15 8696.71 3213.83 8752.18"/>
    <polygon id="MB26" class="st1" points="2827.84 8495.63 2772.12 8495.83 2772.07 8440 2827.75 8440.02 2827.84 8495.63"/>
    <polygon id="" class="st1" points="2892.01 8078.36 2835.9 8078.31 2835.89 8023.27 2891.33 8022.9 2892.01 8078.36"/>
    <polygon id="MB05" class="st1" points="3020.83 8078.69 2965.05 8078.99 2964.88 8023.16 3020.52 8023 3020.83 8078.69"/>
    <polygon id="MB02" class="st1" points="3148.76 8078.69 3092.98 8078.99 3092.81 8023.16 3148.45 8023 3148.76 8078.69"/>
    <polygon id="MB06" class="st1" points="2860.03 8142.35 2803.92 8142.29 2803.91 8087.26 2859.35 8086.89 2860.03 8142.35"/>
    <polygon id="MB07" class="st1" points="2860.03 8206.33 2803.92 8206.27 2803.91 8151.24 2859.35 8150.87 2860.03 8206.33"/>
    <polygon id="MB12" class="st1" points="2988.85 8206.65 2933.07 8206.95 2932.9 8151.12 2988.54 8150.96 2988.85 8206.65"/>
    <polygon id="MB11" class="st1" points="3052.81 8206.65 2997.04 8206.95 2996.86 8151.12 3052.5 8150.96 3052.81 8206.65"/>
    <polygon id="MB10" class="st1" points="3116.77 8206.65 3061 8206.95 3060.83 8151.12 3116.46 8150.96 3116.77 8206.65"/>
    <polygon id="MB08" class="st1" points="2859.82 8271.69 2804.1 8271.89 2804.06 8216.06 2859.73 8216.09 2859.82 8271.69"/>
    <polygon id="MB24MB25" class="st1" points="2956.74 8495.81 2901 8495.67 2900.9 8440.15 2956.77 8440.47 2956.74 8495.81"/>
    <polygon id="MB15" class="st1" points="2988.72 8335.86 2932.99 8335.72 2932.89 8280.19 2988.75 8280.51 2988.72 8335.86"/>
    <polygon id="MB03" class="st1" points="3084.8 8078.66 3030.32 8079.05 3029.71 8023.27 3084.47 8022.95 3084.8 8078.66"/>
    <polygon id="MB27MB28" class="st1" points="2827.99 8559.58 2772.14 8559.82 2771.84 8505.15 2827.38 8504.76 2827.99 8559.58"/>
    <path id="01B" class="st1" d="M3198.06,9426.21l-13.37-11.46-21.61,21.02-13.46-11.82,21.82-22.63,20.73-19.37,32.98-32.24c5.35,1.88,7.6,7.46,6.88,12.43-.59,4.04-3.74,8.61-6.97,12.57l-4.47,5.48c-2.48,3.05,8.85,10.24,11.79,20.52l-23.54,24.32c-3.08,3.19-7.59,3.93-10.78,1.19Z"/>
    <path id="MB19" class="st1" d="M3213.66,8559.15c-7.6,2.22-14.95,2.17-23.93.5l-.12-117.94c7.82-2.45,15.69-2.43,23.96-.59l.09,118.04Z"/>
    <path id="M16" class="st2" d="M3618.15,7619.59c-15.05,2.65-29.73,2.31-45.81.71v-53.75s45.44-.02,45.44-.02l.37,53.05Z"/>
    <polygon id="M21" class="st2" points="3768.09 7974.51 3722.68 7974.55 3722.64 7920.29 3767.84 7920.23 3768.09 7974.51"/>
    <polygon id="M20" class="st2" points="3818.83 7974.02 3773.04 7974.7 3772.73 7920.31 3818.26 7920.18 3818.83 7974.02"/>
    <polygon id="M18" class="st2" points="3618.04 7738.67 3572.34 7738.72 3572.34 7685.04 3617.83 7684.98 3618.04 7738.67"/>
    <polygon id="M22" class="st2" points="3718.05 7974.55 3672.81 7974.51 3672.86 7920.29 3717.82 7920.21 3718.05 7974.55"/>
    <polygon id="M13" class="st2" points="3718.21 7709.06 3672.49 7709.02 3672.6 7655.18 3718.18 7655.38 3718.21 7709.06"/>
    <polygon id="M15" class="st2" points="3718.14 7827.09 3672.49 7826.94 3672.6 7773.17 3717.82 7772.96 3718.14 7827.09"/>
    <polygon id="M08" class="st2" points="3868.86 7826.57 3823.12 7827.01 3823.04 7773.36 3868.54 7773.3 3868.86 7826.57"/>
    <polygon id="M23" class="st2" points="3668.31 7973.64 3622.52 7974.17 3622.53 7920.43 3667.79 7920.38 3668.31 7973.64"/>
    <polygon id="" class="st2" points="3743.37 7502.59 3697.92 7502.86 3697.65 7449.33 3743.04 7449.13 3743.37 7502.59"/>
    <polygon id="M14" class="st2" points="3718.1 7767.45 3672.69 7767.31 3672.99 7713.69 3717.61 7714.1 3718.1 7767.45"/>
    <polygon id="M04" class="st2" points="3868.73 7591.34 3822.88 7590.9 3823.3 7538.35 3868.55 7537.59 3868.73 7591.34"/>
    <path id="M06" class="st2" d="M3868.85,7708.08c-15.5,1.71-28.76,1.69-45.51.49l-.31-52.97,45.52-.04.3,52.51Z"/>
    <polygon id="M05" class="st2" points="3868.85 7649.66 3823.33 7650.06 3822.92 7597.13 3868.45 7596.59 3868.85 7649.66"/>
    <polygon id="M03" class="st2" points="3643.02 7502.37 3597.94 7502.79 3597.93 7448.87 3642.44 7448.83 3643.02 7502.37"/>
    <polygon id="M10" class="st2" points="3868.83 7944.3 3823.25 7944.7 3822.97 7891.19 3868.56 7891.13 3868.83 7944.3"/>
    <polygon id="M09" class="st2" points="3868.85 7885.61 3823.34 7885.91 3822.99 7833.03 3868.45 7832.49 3868.85 7885.61"/>
    <polygon id="M07" class="st2" points="3868.86 7767.68 3823.32 7768.15 3822.91 7715.26 3868.33 7714.72 3868.86 7767.68"/>
    <polygon id="M17" class="st2" points="3618.01 7679.32 3572.4 7679.88 3572.3 7625.87 3617.49 7625.39 3618.01 7679.32"/>
    <polygon id="" class="st2" points="3793.38 7503.12 3748.1 7502.83 3748.06 7448.88 3792.98 7448.74 3793.38 7503.12"/>
    <polygon id="M02" class="st2" points="3693.04 7502.62 3648.6 7503.18 3648.06 7449.62 3692.73 7449.3 3693.04 7502.62"/>
    <polygon id="M24" class="st2" points="3618 7973.9 3572.33 7974.03 3572.34 7920.66 3617.34 7920.35 3618 7973.9"/>
    <path id="MB17" class="st1" d="M3213.63,8366.85c-8.73,1.18-15.77,1.16-23.96-.14l-.02-85.11c7.79-2.16,15.63-2.16,23.92-.58l.05,85.82Z"/>
    <path id="MB33" class="st1" d="M3116.81,8558.42c-8.38,1.87-16.52,1.83-24.06-.14l.04-85.45,23.79-.05.23,85.65Z"/>
    <polygon id="MB37MB38" class="st1" points="2956.57 8592.62 2901.58 8592.84 2901.28 8568.97 2956.15 8568.82 2956.57 8592.62"/>
    <path id="MB36" class="st1" d="M3052.84,8623.09c-7.54,2.07-15.7,2.13-23.98.69l-.09-53.72,23.88-.3.19,53.34Z"/>
    <polygon id="" class="st1" points="3213.62 8688.59 3189.82 8688.25 3189.62 8633.54 3213.49 8633.25 3213.62 8688.59"/>
    <path id="MB18" class="st1" d="M3213.63,8431.31l-23.94-.27-.02-53.72c7.9-1.65,15.49-1.7,23.87-.58l.09,54.57Z"/>
    <polygon id="MB23" class="st1" points="2988.93 8463.03 2964.96 8463.32 2964.82 8408.58 2988.56 8408.52 2988.93 8463.03"/>
    <polygon id="MB42" class="st1" points="2956.57 8752.57 2901.58 8752.8 2901.28 8728.93 2956.15 8728.78 2956.57 8752.57"/>
    <path id="MB16" class="st1" d="M3213.63,8271.35l-23.94-.27-.02-53.72c7.9-1.65,15.49-1.7,23.87-.58l.09,54.57Z"/>
    <polygon id="MB22" class="st1" points="3020.92 8495.02 2996.94 8495.32 2996.81 8440.57 3020.54 8440.51 3020.92 8495.02"/>
    <polygon id="MB01" class="st1" points="3213.62 8142.74 3189.82 8142.4 3189.62 8087.69 3213.49 8087.4 3213.62 8142.74"/>
    <polygon id="" class="st1" points="3213.62 8078.76 3189.82 8078.42 3189.62 8023.71 3213.49 8023.42 3213.62 8078.76"/>
    <path id="" class="st2" d="M3617.39,7827.36l-44.24.03c-.9-9.43-.91-16.46.03-25.19l43.66-.05.56,25.22Z"/>
    <path id="M19" class="st2" d="M3593.07,7795.45c-5.83,2.8-13.89,2.61-20.73.45l-.05-51.08,20.51-.54.27,51.17Z"/>
    <path id="" class="st2" d="M3592.64,7500.81c-6.26,3.02-13.3,2.89-20.23,1.02l-.26-51.33c6.58-2.07,12.48-2.17,20.4-.23l.08,50.54Z"/>
  </g>
</svg>