<?xml version="1.0" encoding="UTF-8"?><svg id="Layer_1" xmlns="http://www.w3.org/2000/svg" viewBox="0 0 100 100">
<path fill="#42c6ff" d="M7.29,63.84l8.49-4.9l11.81-6.8c1.05-0.55,1.69-1.65,1.64-2.84c0-12.72,0-25.45-0.01-38.17
	c-0.03-0.28,0.14-0.54,0.4-0.64c2.34-1.22,4.79-2.22,7.32-2.99c1.69-0.5,3.41-0.94,5.15-1.32c1.16-0.25,2.36-0.37,3.55-0.51
	c0.81-0.1,1.63-0.16,2.44-0.21c0.82-0.05,1.63-0.06,2.43-0.08c0.64-0.01,1.29,0,1.98,0v0.54c0,14.41,0,28.82,0,43.25
	c0,0.86,0.16,1.69,0.8,2.31c0.36,0.34,0.77,0.63,1.2,0.87c4.95,2.87,9.9,5.73,14.86,8.59c4.49,2.59,8.97,5.17,13.46,7.76
	c2.13,1.23,4.27,2.46,6.4,3.7c0.04,0.03,0.08,0.06,0.12,0.1c-0.7,1.12-1.36,2.28-2.12,3.36c-0.86,1.23-1.76,2.42-2.72,3.57
	c-0.93,1.14-1.92,2.22-2.97,3.24c-1.19,1.13-2.47,2.18-3.75,3.2c-0.97,0.77-2,1.47-3.02,2.17c-0.69,0.47-1.43,0.85-2.13,1.31
	c-0.28,0.18-0.46,0.07-0.7-0.06c-3.98-2.3-7.97-4.6-11.95-6.9L42.54,72.32c-0.67-0.38-1.37-0.64-2.15-0.46
	c-0.39,0.08-0.77,0.21-1.12,0.4c-5.1,2.94-10.2,5.87-15.3,8.82l-4.28,2.48c-0.79-0.8-1.6-1.6-2.38-2.43
	c-0.53-0.56-1.04-1.14-1.53-1.74c-0.8-1.02-1.62-2.04-2.38-3.1c-1.57-2.2-2.92-4.55-4.03-7.02c-0.75-1.67-1.36-3.4-2.03-5.12
	c-0.02-0.04-0.04-0.07-0.07-0.11C7.29,63.98,7.29,63.91,7.29,63.84z"/>
<path fill="#ff0098" d="M90.47,19.48v0.07c-0.28,0.68-0.34,0.72-1.13,0.72h-3.02c-0.78,0-1.17,0.4-1.17,1.18
	c0,17.42,0,34.84,0.01,52.27c-0.03,0.61-0.52,1.1-1.13,1.14c-5.02-0.03-10.04-0.03-15.06,0c-0.57-0.05-1.07-0.39-1.33-0.9
	c-0.75-1.82-1.49-3.64-2.23-5.46c-0.84-2.06-1.67-4.12-2.5-6.18c-0.79-1.95-1.58-3.91-2.35-5.87c-0.13-0.34-0.38-0.34-0.62-0.28
	c-0.13,0.04-0.22,0.25-0.29,0.4c-0.02,0.11-0.02,0.21,0,0.32V78.6c0,0.71-0.4,1.13-1.11,1.13c-4.98,0-9.97,0-14.95,0.01
	c-0.64,0.03-1.24-0.3-1.56-0.85c-0.43-0.68-0.82-1.4-1.23-2.09c-0.98-1.66-1.96-3.31-2.95-4.96c-0.7-1.17-1.39-2.34-2.08-3.52
	c-0.81-1.37-1.63-2.75-2.42-4.13c-0.08-0.18-0.29-0.26-0.47-0.19c-0.01,0-0.02,0.01-0.03,0.02c-0.34,0.12-0.37,0.42-0.37,0.73v13.95
	c-0.01,0.56,0.43,1.03,0.99,1.04c0.02,0,0.04,0,0.06,0c1.05,0,2.11,0,3.16,0c0.29-0.03,0.56,0.11,0.71,0.36
	c0.18,0.29,0.07,0.5-0.1,0.74c-0.51,0.72-1.01,1.44-1.51,2.17c-1.25,1.83-2.5,3.66-3.75,5.5c-0.93,1.36-1.86,2.71-2.79,4.07
	c-1.31,1.93-2.61,3.87-3.94,5.79c-0.4,0.58-0.69,1.26-1.32,1.66h-0.36c-0.19-0.15-0.36-0.32-0.52-0.5
	c-0.46-0.63-0.89-1.27-1.33-1.91c-1.25-1.83-2.5-3.66-3.75-5.5c-1.06-1.55-2.12-3.1-3.17-4.66c-1.53-2.25-3.06-4.5-4.6-6.74
	c-0.16-0.19-0.16-0.46,0-0.64c0.15-0.23,0.41-0.36,0.69-0.34c1.35,0,2.71-0.03,4.06,0.02c0.64-0.01,1.16-0.53,1.18-1.17
	c-0.02-11.86-0.02-23.72-0.01-35.59c-0.03-0.56,0.4-1.04,0.96-1.07c0.03,0,0.07,0,0.1,0c4.8,0,9.61,0,14.41,0
	c0.17,0.01,0.34,0.05,0.5,0.12c0.47,0.2,0.76,0.6,1.03,1.02c1.36,2.14,2.75,4.26,4.12,6.39c1.16,1.8,2.31,3.62,3.46,5.43
	c0.18,0.29,0.49,0.38,0.69,0.15c0.15-0.2,0.24-0.45,0.23-0.7c0.01-11.05,0.01-22.09,0-33.14c0-0.72,0.4-1.13,1.11-1.13
	c4.74,0,9.49,0,14.23,0c0.56,0,1.07,0.32,1.3,0.83c0.25,0.46,0.44,0.96,0.66,1.44c0.71,1.6,1.41,3.22,2.12,4.83
	c0.51,1.15,1.03,2.29,1.54,3.44c0.71,1.6,1.4,3.22,2.12,4.83c0.49,1.1,1,2.2,1.48,3.31c0.58,1.33,1.16,2.67,1.75,4
	c0.06,0.1,0.16,0.17,0.28,0.19c0.42,0.04,0.57-0.13,0.57-0.64c0-7,0-13.99,0-20.99c-0.01-0.55-0.46-1-1.02-1c-0.45,0-0.91,0-1.36,0
	c-0.9,0-1.8,0-2.7,0c-0.28,0.02-0.54-0.14-0.65-0.4c-0.08-0.16-0.09-0.34-0.02-0.5c1.23-1.82,2.48-3.62,3.73-5.43
	c0.93-1.35,1.86-2.71,2.79-4.07c1.67-2.45,3.34-4.91,5-7.36c0.51-0.75,1.01-1.5,1.57-2.2c0.37-0.47,0.86-0.4,1.2,0.1
	c0.25,0.37,0.52,0.75,0.77,1.12c1.53,2.24,3.05,4.48,4.58,6.72c0.91,1.33,1.83,2.65,2.74,3.97c1.26,1.84,2.51,3.69,3.77,5.53
	C89.65,18.34,90.07,18.91,90.47,19.48z"/>
<path fill="#ff0098" d="M95.39,52.38c-0.05,0.52-0.1,1.04-0.14,1.57c-0.56,7.1-2.81,13.97-6.58,20.01c-0.03,0.06-0.08,0.11-0.18,0.23
	c0-1.09,0-2.09,0-3.09c0.02-0.11,0.06-0.21,0.12-0.29c2.34-4.35,3.95-9.07,4.74-13.95c0.58-3.48,0.72-7.02,0.4-10.53
	c-0.55-5.98-2.29-11.79-5.12-17.09c-0.09-0.18-0.14-0.38-0.14-0.58c-0.01-0.9,0-1.8,0-2.7c0-0.02,0.02-0.03,0.06-0.09
	c0.24,0.4,0.48,0.78,0.71,1.17c2.88,4.9,4.79,10.3,5.62,15.93c0.2,1.4,0.3,2.83,0.44,4.25c0.01,0.14,0.04,0.28,0.07,0.42
	L95.39,52.38z"/>
<path fill="#ff0098" d="M66.15,7.49l-0.89,1.29c-1.73-0.5-3.4-1.05-5.13-1.47c-4.06-1-8.18-1.47-12.36-1.18
	C36.37,6.92,26.54,11.3,18.53,19.49c-5.98,6.12-9.74,13.5-11.5,21.87c-0.58,2.73-0.89,5.52-0.91,8.31
	c-0.01,5.12,0.87,10.2,2.6,15.01c0.9,2.53,2.02,4.97,3.35,7.3c0.12,0.23,0.19,0.48,0.2,0.74c0.02,0.83,0,1.67,0,2.55
	C3.38,62.73,0.8,41.51,12.33,24.61C25.48,5.35,48.17,0.78,66.15,7.49z"/>
<path fill="#ff0098" d="M33.87,92.57l0.93-1.36c1.54,0.46,3.04,0.95,4.56,1.35c3.51,0.96,7.13,1.42,10.76,1.38
	c12.27-0.25,22.75-4.73,31.44-13.43c0.57-0.58,1.09-1.21,1.65-1.8c0.12-0.12,0.28-0.19,0.45-0.2c0.56-0.02,1.12-0.01,1.78-0.01
	c-5.32,6.47-11.74,11.28-19.55,14.12C55.25,96.48,44.59,96.33,33.87,92.57z"/>
</svg>